<?xml version="1.0" standalone="no"?>
<!DOCTYPE svg PUBLIC "-//W3C//DTD SVG 20010904//EN"
 "http://www.w3.org/TR/2001/REC-SVG-20010904/DTD/svg10.dtd">
<svg version="1.0" xmlns="http://www.w3.org/2000/svg"
 width="400.000000pt" height="400.000000pt" viewBox="0 0 400.000000 400.000000"
 preserveAspectRatio="xMidYMid meet">
<metadata>
Created by potrace 1.14, written by Peter Selinger 2001-2017
</metadata>
<g transform="translate(0.000000,400.000000) scale(0.100000,-0.100000)"
fill="#000000" stroke="none">
<path d="M1580 3519 c-143 -8 -340 -26 -371 -35 -14 -4 -16 -42 -21 -312 -3
-169 -2 -329 2 -357 l7 -50 2 59 c1 50 8 72 46 142 27 49 63 98 90 122 47 41
161 105 207 116 20 4 82 -11 213 -54 102 -33 211 -64 243 -68 61 -9 73 -7 282
41 136 31 259 45 315 36 63 -11 112 -81 213 -309 9 -19 10 37 6 225 -6 334
-11 393 -32 399 -9 3 -62 10 -117 16 -55 6 -110 12 -123 14 -17 3 -24 -3 -31
-28 l-9 -31 -1 31 -1 31 -160 7 c-89 4 -174 9 -190 13 -25 4 -31 2 -38 -18
l-9 -24 -7 23 c-9 26 -21 28 -35 5 -10 -17 -10 -17 -11 0 0 15 -14 17 -162 16
-90 -1 -228 -6 -308 -10z"/>
<path d="M1192 2660 c0 -19 2 -27 5 -17 2 9 2 25 0 35 -3 9 -5 1 -5 -18z"/>
<path d="M1635 2660 c-91 -9 -241 -48 -265 -69 -13 -12 -17 -25 -13 -55 l5
-38 72 6 c39 3 144 11 233 17 l161 12 6 30 c3 16 6 44 6 62 0 30 -3 33 -37 39
-43 7 -69 6 -168 -4z"/>
<path d="M2298 2645 c-3 -4 -23 -7 -45 -9 l-38 -2 -3 -68 -3 -69 183 6 c101 4
202 10 226 13 37 6 42 10 42 33 0 48 -22 65 -109 82 -83 17 -241 25 -253 14z"/>
<path d="M2791 2574 c0 -11 3 -14 6 -6 3 7 2 16 -1 19 -3 4 -6 -2 -5 -13z"/>
<path d="M1202 2555 c0 -16 2 -22 5 -12 2 9 2 23 0 30 -3 6 -5 -1 -5 -18z"/>
<path d="M2782 2495 c0 -16 2 -22 5 -12 2 9 2 23 0 30 -3 6 -5 -1 -5 -18z"/>
<path d="M1212 2465 c0 -16 2 -22 5 -12 2 9 2 23 0 30 -3 6 -5 -1 -5 -18z"/>
<path d="M1524 2480 c-12 -4 -45 -36 -74 -69 -37 -43 -60 -61 -77 -61 -31 0
-79 -25 -86 -45 -4 -9 -19 -15 -40 -15 -30 0 -37 5 -61 50 -45 82 -45 64 1
-26 23 -47 44 -102 46 -122 l4 -37 1 43 c3 57 24 55 41 -5 18 -69 88 -134 167
-156 113 -32 301 -16 376 31 15 10 39 33 53 52 16 22 26 29 29 19 26 -87 26
-87 18 -39 -8 51 -7 128 1 136 10 11 86 16 121 10 30 -6 36 -11 36 -32 0 -31
31 -92 62 -121 46 -43 117 -66 221 -71 203 -10 322 50 358 181 9 36 33 50 42
25 2 -7 23 26 45 75 45 96 61 106 92 55 24 -39 27 -30 4 13 -22 43 -51 35 -84
-21 -22 -37 -32 -45 -60 -47 -23 -2 -41 3 -55 17 -24 23 -75 40 -118 40 -15 0
-44 11 -65 25 -48 32 -130 49 -196 41 -44 -6 -59 -14 -92 -47 -21 -21 -44 -39
-51 -39 -21 0 -91 -38 -95 -52 -3 -8 -30 -12 -83 -13 -71 0 -81 2 -107 27 -16
14 -42 29 -58 33 -17 4 -30 10 -30 13 0 4 -20 32 -45 62 -37 45 -54 57 -93 67
-54 14 -117 16 -148 3z m128 -11 c52 -11 67 -22 117 -89 l19 -25 -183 0 -183
0 33 45 c35 47 85 80 122 80 12 0 46 -5 75 -11z m843 -86 l39 -21 -59 -6 c-33
-3 -102 -5 -152 -4 l-93 2 33 28 c30 27 36 28 112 25 56 -2 92 -10 120 -24z
m-1111 -65 c-6 -10 -4 -10 7 0 15 14 105 17 113 3 4 -6 20 -6 41 0 45 13 258
5 263 -9 1 -5 11 -8 20 -5 10 2 30 -5 45 -17 24 -19 27 -26 21 -58 -11 -59
-41 -110 -82 -137 -79 -52 -257 -68 -373 -34 -136 41 -198 234 -84 262 34 8
36 7 29 -5z m1225 -25 l33 -38 -26 38 c-25 34 -25 37 -8 37 57 0 102 -39 102
-89 0 -40 -53 -123 -97 -151 -82 -52 -243 -63 -370 -25 -78 23 -143 107 -143
186 0 23 34 51 64 53 14 0 26 4 26 8 0 12 42 15 215 17 l170 1 34 -37z"/>
<path d="M1758 2284 l44 -39 -27 -40 c-15 -22 -20 -33 -11 -25 10 7 24 26 31
40 13 25 12 29 -13 52 -15 13 -36 30 -47 38 -11 7 -1 -4 23 -26z"/>
<path d="M1597 2290 c-4 -17 -10 -20 -27 -15 -19 6 -21 3 -18 -21 2 -18 13
-34 30 -44 26 -14 29 -14 55 13 27 26 27 29 13 55 -20 34 -46 40 -53 12z"/>
<path d="M1501 2284 c0 -11 3 -14 6 -6 3 7 2 16 -1 19 -3 4 -6 -2 -5 -13z"/>
<path d="M1817 2250 c-3 -11 -1 -23 4 -26 5 -3 9 6 9 20 0 31 -6 34 -13 6z"/>
<path d="M1345 2228 c-5 -7 -4 -10 0 -5 5 4 28 -12 52 -35 24 -23 43 -40 43
-37 0 3 -20 24 -44 48 -33 32 -46 39 -51 29z"/>
<path d="M1525 2180 c3 -5 8 -10 11 -10 2 0 4 5 4 10 0 6 -5 10 -11 10 -5 0
-7 -4 -4 -10z"/>
<path d="M1578 2153 c7 -3 16 -2 19 1 4 3 -2 6 -13 5 -11 0 -14 -3 -6 -6z"/>
<path d="M1695 2134 c-22 -13 -35 -24 -30 -24 12 0 75 38 75 45 0 6 2 7 -45
-21z"/>
<path d="M1450 2145 c0 -7 61 -37 66 -33 2 3 -12 12 -31 21 -19 9 -35 15 -35
12z"/>
<path d="M1558 2103 c17 -2 47 -2 65 0 17 2 3 4 -33 4 -36 0 -50 -2 -32 -4z"/>
<path d="M2313 2298 c-2 -20 -1 -21 8 -5 6 10 22 17 40 17 24 0 30 -4 27 -17
-2 -10 -11 -17 -21 -17 -11 1 -17 -6 -17 -20 0 -42 46 -61 76 -32 20 21 17 53
-7 70 -20 13 -20 14 -2 19 10 3 -9 5 -42 6 -56 1 -61 -1 -62 -21z"/>
<path d="M2460 2303 c8 -3 18 -10 21 -15 3 -5 9 -3 12 6 5 12 0 16 -21 15 -16
0 -21 -3 -12 -6z"/>
<path d="M2510 2296 c0 -2 7 -7 16 -10 8 -3 12 -2 9 4 -6 10 -25 14 -25 6z"/>
<path d="M2301 2254 c0 -11 3 -14 6 -6 3 7 2 16 -1 19 -3 4 -6 -2 -5 -13z"/>
<path d="M2170 2233 c0 -12 3 -13 14 -4 11 10 16 8 20 -7 4 -11 16 -28 28 -38
16 -15 15 -11 -6 20 -28 41 -56 56 -56 29z"/>
<path d="M2480 2230 c0 -8 -10 -25 -22 -38 l-23 -25 23 14 c23 14 39 46 28 56
-3 4 -6 0 -6 -7z"/>
<path d="M2310 2223 c0 -17 45 -51 75 -57 29 -6 29 -6 -4 7 -18 7 -42 23 -52
36 -11 13 -19 19 -19 14z"/>
<path d="M2579 2169 c-50 -51 -62 -59 -95 -60 -22 0 -48 -5 -59 -10 -14 -6 -3
-8 35 -4 72 8 106 31 162 108 28 39 20 33 -43 -34z"/>
<path d="M2265 2150 c11 -18 86 -50 115 -49 16 0 9 5 -22 13 -25 7 -58 20 -73
30 -15 10 -24 13 -20 6z"/>
<path d="M2772 2400 c0 -19 2 -27 5 -17 2 9 2 25 0 35 -3 9 -5 1 -5 -18z"/>
<path d="M1095 2369 c-22 -42 -15 -44 12 -3 12 19 18 34 13 34 -5 0 -17 -14
-25 -31z"/>
<path d="M1223 2350 c0 -25 2 -35 4 -22 2 12 2 32 0 45 -2 12 -4 2 -4 -23z"/>
<path d="M1067 2287 c-7 -32 -4 -46 16 -80 28 -47 74 -94 83 -85 3 4 8 26 10
50 l4 43 -13 -39 -12 -40 -35 44 c-26 33 -36 57 -40 94 l-6 51 -7 -38z"/>
<path d="M2921 2279 c-1 -37 -8 -56 -38 -95 l-37 -49 -13 40 -13 40 4 -43 c2
-24 7 -46 10 -50 9 -9 55 39 83 86 22 36 24 47 15 80 l-10 37 -1 -46z"/>
<path d="M2751 2164 c-1 -17 -17 -147 -36 -288 -19 -142 -35 -260 -35 -262 0
-7 -315 -347 -412 -446 -47 -47 -100 -94 -118 -103 -44 -23 -201 -32 -268 -16
-46 12 -62 24 -164 130 -246 253 -403 431 -415 469 -6 20 -12 29 -12 20 -2
-33 18 -64 99 -158 l83 -95 -7 -110 c-4 -60 -9 -135 -11 -165 -4 -46 -3 -49 4
-21 5 19 12 91 16 159 l8 125 65 -74 c115 -128 246 -260 282 -282 31 -20 49
-22 165 -22 107 0 136 3 165 18 19 10 103 88 186 173 l151 155 11 -68 c7 -37
15 -107 18 -154 l6 -86 -128 -50 c-71 -28 -167 -60 -214 -72 -148 -38 -166
-60 -177 -213 -3 -43 -9 -78 -12 -78 -4 0 -12 41 -19 91 -18 133 -35 158 -132
187 -106 32 -386 124 -415 136 l-33 14 -7 -149 c-9 -176 11 -153 -190 -219
-183 -60 -552 -209 -733 -296 -136 -65 -154 -77 -167 -107 -13 -31 -36 -154
-49 -259 l-6 -48 1740 0 1739 0 -5 53 c-11 101 -34 236 -45 260 -24 53 -407
232 -784 365 -93 33 -195 70 -226 81 l-56 21 -6 83 c-4 45 -7 109 -8 142 -1
68 -8 90 -29 90 -12 0 -17 28 -26 147 -5 81 -13 150 -17 154 -3 4 34 52 82
108 l89 101 20 170 c32 258 45 392 39 407 -3 7 -6 -1 -6 -18z"/>
<path d="M1243 2065 c0 -22 2 -30 4 -17 2 12 2 30 0 40 -3 9 -5 -1 -4 -23z"/>
<path d="M1938 2013 c7 -3 16 -2 19 1 4 3 -2 6 -13 5 -11 0 -14 -3 -6 -6z"/>
<path d="M1252 1960 c0 -19 2 -27 5 -17 2 9 2 25 0 35 -3 9 -5 1 -5 -18z"/>
<path d="M1832 1967 c-29 -30 -28 -40 8 -81 21 -24 27 -36 18 -39 -7 -3 -1 -5
13 -4 14 0 39 -9 56 -21 39 -27 64 -28 94 -2 l24 20 -32 -17 c-31 -17 -34 -17
-69 2 -43 23 -124 93 -124 106 0 6 11 21 25 34 13 14 21 25 16 25 -4 0 -17
-10 -29 -23z"/>
<path d="M2199 1929 c5 -15 8 -37 5 -50 -4 -22 -4 -22 5 -4 14 29 13 39 -4 61
-14 18 -15 17 -6 -7z"/>
<path d="M1777 1893 c-10 -9 -8 -45 2 -62 5 -8 8 2 7 28 0 23 -1 41 -2 41 0 0
-4 -3 -7 -7z"/>
<path d="M1262 1865 c0 -16 2 -22 5 -12 2 9 2 23 0 30 -3 6 -5 -1 -5 -18z"/>
<path d="M2088 1863 c7 -3 16 -2 19 1 4 3 -2 6 -13 5 -11 0 -14 -3 -6 -6z"/>
<path d="M1272 1780 c0 -19 2 -27 5 -17 2 9 2 25 0 35 -3 9 -5 1 -5 -18z"/>
<path d="M1282 1715 c0 -16 2 -22 5 -12 2 9 2 23 0 30 -3 6 -5 -1 -5 -18z"/>
<path d="M1810 1539 l-105 -39 55 3 c30 2 76 10 101 17 47 14 47 13 98 -23 28
-20 54 -37 57 -37 4 0 24 16 45 35 29 26 45 34 62 30 69 -17 133 -21 175 -12
l47 11 -57 7 c-32 5 -89 18 -128 30 l-71 21 -41 -32 -40 -32 -26 19 c-58 43
-60 43 -172 2z"/>
<path d="M1830 1297 c0 -17 71 -127 94 -146 9 -8 19 -11 23 -8 3 4 13 1 21 -5
12 -10 18 -8 33 11 11 13 19 18 19 11 0 -9 4 -9 16 1 15 12 16 11 9 -11 -7
-23 -5 -23 30 10 40 38 97 129 89 142 -3 4 -79 8 -170 8 -131 0 -164 -3 -164
-13z"/>
</g>
</svg>
